<?xml version="1.0" encoding="utf-8"?>
<!-- Generator: Adobe Illustrator 24.2.1, SVG Export Plug-In . SVG Version: 6.00 Build 0)  -->
<svg version="1.1" id="Layer_1" xmlns="http://www.w3.org/2000/svg" xmlns:xlink="http://www.w3.org/1999/xlink" x="0px" y="0px"
	 viewBox="0 0 36 35.2" style="enable-background:new 0 0 36 35.2;" xml:space="preserve">
<style type="text/css">
	.st0{fill:#5B62F5;}
</style>
<path class="st0" d="M19.3,17l-0.9-0.1v-3h2.1v-1h-2.1v-1.4h-1v1.4h-0.8c-1.3,0-2.4,1.1-2.4,2.4c0,1.2,0.9,2.2,2,2.3l1.2,0.2V21H15
	v1h2.4v1.2h1V22H19c1.4,0,2.5-1.1,2.5-2.5C21.5,18.2,20.5,17.1,19.3,17z M16.4,16.6c-0.6-0.1-1.2-0.7-1.2-1.3c0-0.9,0.7-1.4,1.4-1.4
	h0.8v2.8L16.4,16.6z M19,21h-0.6v-3.1l0.8,0.1c0.7,0.1,1.3,0.7,1.3,1.5C20.5,20.3,19.8,21,19,21z M34.5,16.8h-1.6
	C32.6,9,26.2,2.8,18.4,2.6V1.1h-1v1.5C9.8,3,3.6,9.2,3.3,16.8H1.7v1h1.6c0.2,7.7,6.4,14,14.1,14.4v1.5h1v-1.5
	c7.9-0.2,14.3-6.5,14.5-14.4h1.6V16.8z M31.9,16.8h-2.6C29,11,24.2,6.4,18.4,6.2V3.6C25.7,3.8,31.6,9.6,31.9,16.8z M28.3,17.8
	c-0.2,5.3-4.5,9.6-9.9,9.8v-0.9h-1v0.9c-5.2-0.4-9.3-4.6-9.5-9.8h0.9v-1H7.9c0.3-5.1,4.4-9.2,9.5-9.6v0.9h1V7.2
	c5.3,0.2,9.6,4.3,9.9,9.6h-0.9v1H28.3z M17.4,3.6v2.6C11.8,6.6,7.2,11.1,6.9,16.8H4.3C4.6,9.7,10.3,4,17.4,3.6z M4.3,17.8h2.6
	c0.2,5.8,4.8,10.4,10.5,10.8v2.6C10.2,30.8,4.5,25,4.3,17.8z M18.4,31.2v-2.6c5.9-0.2,10.7-4.9,10.9-10.8h2.6
	C31.7,25.1,25.7,31,18.4,31.2z"/>
</svg>
