<?xml version="1.0" encoding="utf-8"?>
<!-- Generator: Adobe Illustrator 23.0.6, SVG Export Plug-In . SVG Version: 6.00 Build 0)  -->
<svg version="1.1" id="Layer_1" xmlns="http://www.w3.org/2000/svg" xmlns:xlink="http://www.w3.org/1999/xlink" x="0px" y="0px"
	 viewBox="0 0 300 300" style="enable-background:new 0 0 300 300;" xml:space="preserve">
<style type="text/css">
	.st0{fill:#DC382D;}
</style>
<g>
	<g>
		<path class="st0" d="M240.1,235.6c7.6-0.8,11.4-4.8,11.4-10.1v-151c0-5.3-3.8-9.3-11.4-10.1V235.6z"/>
	</g>
	<g>
		<path class="st0" d="M59.9,64.4c-7.6,0.8-11.4,4.8-11.4,10.1v151c0,5.3,3.8,9.3,11.4,10.1V64.4z"/>
	</g>
	<rect x="175.4" y="95.4" class="st0" width="66.9" height="11.4"/>
	<path class="st0" d="M83.8,120.9c-9.1,0-16.5-9.3-16.5-20.7c0-11.4,7.4-20.7,16.5-20.7c9.1,0,16.5,9.3,16.5,20.7
		C100.3,111.6,92.9,120.9,83.8,120.9z M83.8,88.1c-4.3,0-7.9,5.5-7.9,12.1c0,6.6,3.6,12.1,7.9,12.1s7.9-5.5,7.9-12.1
		C91.7,93.7,88.1,88.1,83.8,88.1z"/>
	<path class="st0" d="M118.8,120.9c-9.1,0-16.5-9.3-16.5-20.7c0-11.4,7.4-20.7,16.5-20.7s16.5,9.3,16.5,20.7
		C135.3,111.6,127.9,120.9,118.8,120.9z M118.8,88.1c-4.3,0-7.9,5.5-7.9,12.1c0,6.6,3.6,12.1,7.9,12.1s7.9-5.5,7.9-12.1
		C126.7,93.7,123.1,88.1,118.8,88.1z"/>
	<path class="st0" d="M153.8,120.9c-9.1,0-16.5-9.3-16.5-20.7c0-11.4,7.4-20.7,16.5-20.7s16.5,9.3,16.5,20.7
		C170.3,111.6,162.9,120.9,153.8,120.9z M153.8,88.1c-4.3,0-7.9,5.5-7.9,12.1c0,6.6,3.6,12.1,7.9,12.1s7.9-5.5,7.9-12.1
		C161.8,93.7,158.1,88.1,153.8,88.1z"/>
	<rect x="60.1" y="147.1" class="st0" width="66.8" height="11.4"/>
	<path class="st0" d="M201.4,151.9c0-11.4,7.4-20.7,16.5-20.7c9.1,0,16.5,9.3,16.5,20.7c0,11.4-7.4,20.7-16.5,20.7
		C208.8,172.6,201.4,163.3,201.4,151.9z M210,151.9c0,6.6,3.6,12.1,7.9,12.1c4.3,0,7.9-5.5,7.9-12.1c0-6.6-3.6-12.1-7.9-12.1
		C213.6,139.8,210,145.3,210,151.9z"/>
	<path class="st0" d="M166.4,151.9c0-11.4,7.4-20.7,16.5-20.7s16.5,9.3,16.5,20.7c0,11.4-7.4,20.7-16.5,20.7
		S166.4,163.3,166.4,151.9z M175,151.9c0,6.6,3.6,12.1,7.9,12.1c4.3,0,7.9-5.5,7.9-12.1c0-6.6-3.6-12.1-7.9-12.1
		C178.6,139.8,175,145.3,175,151.9z"/>
	<path class="st0" d="M131.4,151.9c0-11.4,7.4-20.7,16.5-20.7s16.5,9.3,16.5,20.7c0,11.4-7.4,20.7-16.5,20.7
		S131.4,163.3,131.4,151.9z M140,151.9c0,6.6,3.6,12.1,7.9,12.1c4.3,0,7.9-5.5,7.9-12.1c0-6.6-3.6-12.1-7.9-12.1
		C143.6,139.8,140,145.3,140,151.9z"/>
	<rect x="175.4" y="195.6" class="st0" width="66.9" height="11.4"/>
	<path class="st0" d="M84.3,221.1c-9.1,0-16.5-9.3-16.5-20.7c0-11.4,7.4-20.7,16.5-20.7c9.1,0,16.5,9.3,16.5,20.7
		C100.8,211.9,93.4,221.1,84.3,221.1z M84.3,188.4c-4.3,0-7.9,5.5-7.9,12.1c0,6.6,3.6,12.1,7.9,12.1s7.9-5.5,7.9-12.1
		C92.2,193.9,88.6,188.4,84.3,188.4z"/>
	<path class="st0" d="M119.3,221.1c-9.1,0-16.5-9.3-16.5-20.7c0-11.4,7.4-20.7,16.5-20.7s16.5,9.3,16.5,20.7
		C135.8,211.9,128.4,221.1,119.3,221.1z M119.3,188.4c-4.3,0-7.9,5.5-7.9,12.1c0,6.6,3.6,12.1,7.9,12.1s7.9-5.5,7.9-12.1
		C127.2,193.9,123.6,188.4,119.3,188.4z"/>
	<path class="st0" d="M154.3,221.1c-9.1,0-16.5-9.3-16.5-20.7c0-11.4,7.4-20.7,16.5-20.7s16.5,9.3,16.5,20.7
		C170.8,211.9,163.4,221.1,154.3,221.1z M154.3,188.4c-4.3,0-7.9,5.5-7.9,12.1c0,6.6,3.6,12.1,7.9,12.1c4.3,0,7.9-5.5,7.9-12.1
		C162.3,193.9,158.6,188.4,154.3,188.4z"/>
</g>
</svg>
