<?xml version="1.0" encoding="utf-8"?>
<!-- Generator: Adobe Illustrator 23.0.2, SVG Export Plug-In . SVG Version: 6.00 Build 0)  -->
<svg version="1.1" id="Layer_1" xmlns="http://www.w3.org/2000/svg" xmlns:xlink="http://www.w3.org/1999/xlink" x="0px" y="0px"
	 viewBox="0 0 300 300" style="enable-background:new 0 0 300 300;" xml:space="preserve">
<style type="text/css">
	.st0{fill:#DC382D;}
</style>
<g>
	<g>
		<path class="st0" d="M172.2,173l-15.9-20.1l21.4-6.8c1.8-0.8,2.9-2.4,2.4-4.4c-0.8-1.8-2.6-2.9-4.4-2.4l-22.2,6.8v-21.7
			c0-2.1-1.6-3.7-3.7-3.7c-2.1,0-3.7,1.6-3.7,3.7v21.4l-22.2-6.8c-1.8-0.8-3.7,0.5-4.4,2.1c-0.8,1.8,0.5,3.7,2.1,4.4l22,6.8
			l-15.9,20.4c-1,1.6-0.8,3.7,0.5,5c1.6,1,3.7,0.8,5-0.5l17-21.2l16.5,20.9c0.8,0.8,1.8,1.3,2.6,1.3c0.8,0,1.6-0.3,2.4-0.8
			C173.3,176.7,173.5,174.3,172.2,173L172.2,173z"/>
		<path class="st0" d="M125.2,224.8c-2.1,0-3.7,1.6-3.7,3.7V254H72.6v-25.6c0-2.1-1.6-3.7-3.7-3.7c-2.1,0-3.7,1.6-3.7,3.7v29
			c0,2.1,1.6,3.7,3.7,3.7h55.9c2.1,0,3.7-1.6,3.7-3.7v-29C128.8,226.3,127.2,224.8,125.2,224.8L125.2,224.8z"/>
		<path class="st0" d="M82.8,212.7c0,8.1,6.5,14.4,14.4,14.4c8.1,0,14.4-6.5,14.4-14.4c0-7.8-6.3-14.4-14.4-14.4
			S82.8,204.9,82.8,212.7L82.8,212.7z M104.8,212.7c0,4.2-3.1,7.3-7.3,7.3c-3.9,0-7.3-3.4-7.3-7.3c0-3.9,3.4-7.3,7.3-7.3
			C101.4,205.4,104.8,208.6,104.8,212.7L104.8,212.7z"/>
		<path class="st0" d="M231.3,224.8c-2.1,0-3.7,1.6-3.7,3.7V254h-48.4v-25.6c0-2.1-1.6-3.7-3.7-3.7s-3.7,1.6-3.7,3.7v29
			c0,2.1,1.6,3.7,3.7,3.7h55.7c2.1,0,3.7-1.6,3.7-3.7v-29C234.7,226.3,233.1,224.8,231.3,224.8L231.3,224.8z"/>
		<path class="st0" d="M203.8,227.1c7.8,0,14.1-6.5,14.1-14.4c0-7.8-6.3-14.4-14.1-14.4c-8.1,0-14.6,6.3-14.6,14.4
			S195.5,227.1,203.8,227.1L203.8,227.1z M203.8,205.4c3.9,0,7.1,3.4,7.1,7.3c0,4.2-3.1,7.3-7.1,7.3c-4.2,0-7.8-3.4-7.8-7.3
			C196.3,208.6,199.7,205.4,203.8,205.4L203.8,205.4z"/>
		<path class="st0" d="M101.6,177.4v-29c0-2.1-1.6-3.7-3.7-3.7c-2.1,0-3.7,1.6-3.7,3.7v25.6H46.2v-25.6c0-2.1-1.6-3.7-3.7-3.7
			c-2.1,0-3.7,1.6-3.7,3.7v29c0,2.1,1.6,3.7,3.7,3.7H98C100.1,181.1,101.6,179.5,101.6,177.4L101.6,177.4z"/>
		<path class="st0" d="M70.5,147.4c8.1,0,14.4-6.5,14.4-14.4s-6.5-14.6-14.4-14.6s-14.4,6.3-14.4,14.4S62.4,147.4,70.5,147.4
			L70.5,147.4z M70.5,125.4c3.9,0,7.3,3.4,7.3,7.3c0,3.9-3.4,7.3-7.3,7.3c-4.2,0-7.3-3.1-7.3-7.3C63.2,128.6,66.6,125.4,70.5,125.4
			L70.5,125.4z"/>
		<path class="st0" d="M122.5,101.4H178c2.1,0,3.7-1.6,3.7-3.7v-29c0-2.1-1.6-3.7-3.7-3.7s-3.7,1.6-3.7,3.7v25.6h-48.4V68.7
			c0-2.1-1.6-3.7-3.7-3.7c-2.1,0-3.4,1.6-3.4,3.7v29C118.9,99.5,120.7,101.4,122.5,101.4L122.5,101.4z"/>
		<g>
			<path class="st0" d="M150.2,67.7c8.1,0,14.4-6.5,14.4-14.4s-6.5-14.4-14.4-14.4c-7.8,0-14.4,6.3-14.4,14.4
				C135.9,61.1,142.1,67.7,150.2,67.7L150.2,67.7z M150.2,45.7c3.9,0,7.3,3.4,7.3,7.3s-3.4,7.3-7.3,7.3c-4.2,0-7.3-3.1-7.3-7.3
				C142.9,48.8,146.1,45.7,150.2,45.7L150.2,45.7z"/>
			<path class="st0" d="M257.7,144.8c-2.1,0-3.7,1.6-3.7,3.7v25.6h-48.4v-25.6c0-2.1-1.6-3.7-3.7-3.7s-3.7,1.6-3.7,3.7v29
				c0,2.1,1.6,3.7,3.7,3.7h55.4c2.1,0,3.7-1.6,3.7-3.7v-29C261.4,146.6,259.8,144.8,257.7,144.8L257.7,144.8z"/>
		</g>
		<path class="st0" d="M230.2,147.4c8.1,0,14.4-6.5,14.4-14.4s-6.3-14.6-14.4-14.6c-8.1,0-14.4,6.3-14.4,14.4
			S222.1,147.4,230.2,147.4L230.2,147.4z M230.2,125.4c3.9,0,7.3,3.4,7.3,7.3c0,3.9-3.4,7.3-7.3,7.3c-4.2,0-7.3-3.1-7.3-7.3
			C222.9,128.6,226.1,125.4,230.2,125.4L230.2,125.4z"/>
	</g>
</g>
</svg>
