<?xml version="1.0" encoding="utf-8"?>
<!-- Generator: Adobe Illustrator 23.0.4, SVG Export Plug-In . SVG Version: 6.00 Build 0)  -->
<svg version="1.1" id="Layer_1" xmlns="http://www.w3.org/2000/svg" xmlns:xlink="http://www.w3.org/1999/xlink" x="0px" y="0px"
	 viewBox="0 0 36 40" style="enable-background:new 0 0 36 40;" xml:space="preserve">
<style type="text/css">
	.st0{fill:#5B62F5;}
</style>
<path class="st0" d="M17.8,20.5c2,0,3.7-1.7,3.7-3.7v-2.4c0-2.1-1.6-3.7-3.7-3.7c-2.1,0-3.7,1.6-3.7,3.7v2.4
	C14.1,18.9,15.7,20.5,17.8,20.5z M15.1,14.4c0-1.5,1.2-2.7,2.7-2.7s2.7,1.2,2.7,2.7v2.4c0,1.5-1.2,2.7-2.7,2.7
	c-1.5,0-2.7-1.2-2.7-2.7V14.4z M10.1,28.5h-1v-2.2c0-2.7,3.9-4.9,8.7-4.9s8.7,2.2,8.7,4.9v2.2h-1v-2.2c0-2.1-3.5-3.9-7.7-3.9
	s-7.7,1.8-7.7,3.9V28.5z M32.9,26.4V14.3c0.7-0.4,1.2-1.1,1.2-2c0-1.3-1-2.3-2.3-2.3c-0.6,0-1.1,0.2-1.5,0.5L20.3,4.7
	c0-0.1,0-0.2,0-0.3c0-1.3-1-2.3-2.3-2.3s-2.3,1-2.3,2.3c0,0.1,0,0.3,0,0.4L5.5,10.7c-0.4-0.4-1-0.7-1.7-0.7c-1.3,0-2.3,1-2.3,2.3
	c0,1.1,0.7,2,1.7,2.2v11.7c-1,0.3-1.7,1.1-1.7,2.2c0,1.3,1,2.3,2.3,2.3c0.5,0,0.9-0.2,1.3-0.4l10.6,6.2c0.1,1.2,1,2.1,2.3,2.1
	c1.2,0,2.2-0.9,2.3-2.1l10.5-6c0.3,0.2,0.7,0.3,1.1,0.3c1.3,0,2.3-1,2.3-2.3C34.1,27.5,33.6,26.8,32.9,26.4z M16.1,5.7
	c0.4,0.6,1.1,1,1.9,1c0.8,0,1.5-0.4,1.9-1.1l9.8,5.7c-0.1,0.3-0.2,0.6-0.2,1c0,1.3,1,2.3,2.3,2.3c0,0,0.1,0,0.1,0v11.5
	c0,0-0.1,0-0.1,0c-1.3,0-2.3,1-2.3,2.3c0,0.5,0.2,1,0.4,1.3l-9.8,5.7C19.8,34.6,19,34,18,34c-1,0-1.8,0.6-2.1,1.4L5.8,29.5
	c0.2-0.3,0.3-0.7,0.3-1.1c0-1.1-0.8-2.1-1.9-2.3V14.6c1.1-0.2,1.9-1.1,1.9-2.3c0-0.3,0-0.5-0.1-0.7L16.1,5.7z"/>
</svg>
